<svg width="69" height="69" viewBox="0 0 69 69" fill="none" xmlns="http://www.w3.org/2000/svg">
<g id="material-symbols:rocket-launch-outline">
<path id="Vector" d="M16.2436 28.8222L21.8498 31.1941C22.5206 29.8524 23.2154 28.5587 23.9342 27.3128C24.6529 26.067 25.4436 24.8212 26.3061 23.5753L22.2811 22.7847L16.2436 28.8222ZM26.4498 34.7878L34.6436 42.9097C36.6561 42.143 38.8123 40.9691 41.1123 39.3878C43.4123 37.8066 45.5686 36.0097 47.5811 33.9972C50.9352 30.643 53.5591 26.918 55.4528 22.8221C57.3465 18.7262 58.1726 14.9523 57.9311 11.5003C54.4811 11.2608 50.6956 12.0878 46.5748 13.9815C42.454 15.8751 38.7165 18.4981 35.3623 21.8503C33.3498 23.8628 31.5529 26.0191 29.9717 28.3191C28.3904 30.6191 27.2165 32.7753 26.4498 34.7878ZM39.2436 30.116C38.1415 29.0139 37.5904 27.6607 37.5904 26.0565C37.5904 24.4522 38.1415 23.0981 39.2436 21.9941C40.3456 20.892 41.7113 20.341 43.3404 20.341C44.9696 20.341 46.3352 20.892 47.4373 21.9941C48.5394 23.0962 49.0904 24.4503 49.0904 26.0565C49.0904 27.6626 48.5394 29.0158 47.4373 30.116C46.3352 31.218 44.9696 31.7691 43.3404 31.7691C41.7113 31.7691 40.3456 31.218 39.2436 30.116ZM40.6092 53.1878L46.6467 47.1503L45.8561 43.1253C44.6102 43.9878 43.3644 44.766 42.1186 45.4598C40.8727 46.1537 39.579 46.837 38.2373 47.5097L40.6092 53.1878ZM63.1061 6.25346C64.0165 12.0514 63.4539 17.694 61.4184 23.1815C59.3829 28.6689 55.8726 33.9023 50.8873 38.8818L52.3248 46.0003C52.5165 46.9587 52.4686 47.893 52.1811 48.8035C51.8936 49.7139 51.4144 50.5045 50.7436 51.1753L38.6686 63.2503L32.6311 49.091L20.3404 36.8003L6.18106 30.7628L18.1842 18.6878C18.855 18.017 19.6581 17.5378 20.5934 17.2503C21.5288 16.9628 22.4746 16.9149 23.4311 17.1066L30.5467 18.5441C35.53 13.5607 40.7529 10.0389 46.2154 7.97846C51.6779 5.91804 57.3081 5.34304 63.1061 6.25346ZM11.2842 45.9285C12.9613 44.2514 15.0102 43.4013 17.4309 43.3783C19.8517 43.3553 21.8996 44.1814 23.5748 45.8566C25.2519 47.5337 26.0789 49.5826 26.0559 52.0033C26.0329 54.4241 25.1819 56.472 23.5029 58.1472C22.305 59.3451 20.305 60.3753 17.5028 61.2378C14.7006 62.1003 10.8309 62.867 5.89355 63.5378C6.56439 58.6024 7.33105 54.7327 8.19355 51.9286C9.05605 49.1245 10.0863 47.1245 11.2842 45.9285ZM15.3811 49.9535C14.9019 50.4326 14.4227 51.3076 13.9436 52.5783C13.4644 53.8491 13.129 55.1304 12.9373 56.4222C14.2311 56.2305 15.5133 55.9066 16.7841 55.4505C18.0548 54.9943 18.9288 54.5276 19.4061 54.0503C19.9811 53.4753 20.2925 52.7805 20.3404 51.966C20.3883 51.1514 20.1248 50.4566 19.5498 49.8816C18.9748 49.3066 18.28 49.0306 17.4654 49.0536C16.6508 49.0766 15.9561 49.3765 15.3811 49.9535Z" fill="black"/>
</g>
</svg>
